<?xml version="1.0" encoding="utf-8"?>
<!-- Generator: Adobe Illustrator 19.2.0, SVG Export Plug-In . SVG Version: 6.00 Build 0)  -->
<svg version="1.1" id="Layer_1" xmlns="http://www.w3.org/2000/svg" xmlns:xlink="http://www.w3.org/1999/xlink" x="0px" y="0px"
	 viewBox="0 0 200 200" style="enable-background:new 0 0 200 200;" xml:space="preserve">
<style type="text/css">
	.st0{fill:#4D4D4D;}
	.st1{fill:#FFFFFF;}
</style>
<path class="st0" d="M100,195L100,195c52.5,0,95-42.5,95-94.9v0c0-52.5-42.5-95-95-95h0C47.5,5,5,47.5,5,100v0
	C5,152.5,47.5,195,100,195z"/>
<path id="facebook_3_" class="st1" d="M108.9,160.3v-52.7h17.7l2.6-20.5h-20.3V74c0-5.9,1.6-10,10.2-10l10.9,0V45.7
	c-1.9-0.2-8.3-0.8-15.8-0.8c-15.7,0-26.4,9.6-26.4,27.1v15.1H70v20.5h17.7v52.7H108.9z"/>
</svg>
