<?xml version="1.0" encoding="utf-8"?>
<!-- Generator: Adobe Illustrator 19.2.0, SVG Export Plug-In . SVG Version: 6.00 Build 0)  -->
<svg version="1.1" id="Layer_1" xmlns="http://www.w3.org/2000/svg" xmlns:xlink="http://www.w3.org/1999/xlink" x="0px" y="0px"
	 viewBox="0 0 200 200" style="enable-background:new 0 0 200 200;" xml:space="preserve">
<style type="text/css">
	.st0{fill:#4D4D4D;}
	.st1{fill:#FFFFFF;}
</style>
<path class="st0" d="M100,195L100,195c52.5,0,95-42.5,95-95v0c0-52.5-42.5-95-95-95h0C47.5,5,5,47.5,5,100v0
	C5,152.5,47.5,195,100,195z"/>
<g id="instagram_3_">
	<path class="st1" d="M100,60.1c13,0,14.5,0,19.7,0.3c4.7,0.2,7.3,1,9,1.7c2.3,0.9,3.9,1.9,5.6,3.6c1.7,1.7,2.8,3.3,3.6,5.6
		c0.7,1.7,1.5,4.3,1.7,9c0.2,5.1,0.3,6.7,0.3,19.7c0,13,0,14.5-0.3,19.7c-0.2,4.7-1,7.3-1.7,9c-0.9,2.3-1.9,3.9-3.6,5.6
		c-1.7,1.7-3.3,2.8-5.6,3.6c-1.7,0.7-4.3,1.5-9,1.7c-5.1,0.2-6.7,0.3-19.7,0.3s-14.5,0-19.7-0.3c-4.7-0.2-7.3-1-9-1.7
		c-2.3-0.9-3.9-1.9-5.6-3.6c-1.7-1.7-2.8-3.3-3.6-5.6c-0.7-1.7-1.5-4.3-1.7-9c-0.2-5.1-0.3-6.7-0.3-19.7c0-13,0-14.5,0.3-19.7
		c0.2-4.7,1-7.3,1.7-9c0.9-2.3,1.9-3.9,3.6-5.6c1.7-1.7,3.3-2.8,5.6-3.6c1.7-0.7,4.3-1.5,9-1.7C85.5,60.1,87,60.1,100,60.1
		 M100,51.3c-13.2,0-14.9,0.1-20.1,0.3c-5.2,0.2-8.7,1.1-11.8,2.3c-3.2,1.2-5.9,2.9-8.6,5.6c-2.7,2.7-4.4,5.4-5.6,8.6
		c-1.2,3.1-2,6.6-2.3,11.8c-0.2,5.2-0.3,6.9-0.3,20.1c0,13.2,0.1,14.9,0.3,20.1c0.2,5.2,1.1,8.7,2.3,11.8c1.2,3.2,2.9,5.9,5.6,8.6
		c2.7,2.7,5.4,4.4,8.6,5.6c3.1,1.2,6.6,2,11.8,2.3c5.2,0.2,6.9,0.3,20.1,0.3s14.9-0.1,20.1-0.3c5.2-0.2,8.7-1.1,11.8-2.3
		c3.2-1.2,5.9-2.9,8.6-5.6s4.4-5.4,5.6-8.6c1.2-3.1,2-6.6,2.3-11.8c0.2-5.2,0.3-6.9,0.3-20.1s-0.1-14.9-0.3-20.1
		c-0.2-5.2-1.1-8.7-2.3-11.8c-1.2-3.2-2.9-5.9-5.6-8.6c-2.7-2.7-5.4-4.4-8.6-5.6c-3.1-1.2-6.6-2-11.8-2.3
		C114.9,51.3,113.2,51.3,100,51.3L100,51.3z"/>
	<path class="st1" d="M100,75c-13.8,0-25,11.2-25,25s11.2,25,25,25s25-11.2,25-25S113.8,75,100,75z M100,116.2
		c-9,0-16.2-7.3-16.2-16.2S91,83.8,100,83.8s16.2,7.3,16.2,16.2S109,116.2,100,116.2z"/>
	<circle class="st1" cx="126" cy="74" r="5.8"/>
</g>
</svg>
