<?xml version="1.0" encoding="utf-8"?>
<!-- Generator: Adobe Illustrator 19.2.0, SVG Export Plug-In . SVG Version: 6.00 Build 0)  -->
<svg version="1.1" id="Layer_1" xmlns="http://www.w3.org/2000/svg" xmlns:xlink="http://www.w3.org/1999/xlink" x="0px" y="0px"
	 viewBox="0 0 200 200" style="enable-background:new 0 0 200 200;" xml:space="preserve">
<style type="text/css">
	.st0{fill:#2365AF;}
	.st1{fill:#4D4D4D;}
	.st2{fill-rule:evenodd;clip-rule:evenodd;fill:#FFFFFF;}
</style>
<path class="st0" d="M198.6,208.4L198.6,208.4"/>
<path class="st1" d="M100,195L100,195c52.5,0,95-42.5,95-95v0c0-52.5-42.5-95-95-95h0C47.5,5,5,47.5,5,100v0
	C5,152.5,47.5,195,100,195z"/>
<path id="vk_x5F_alt_3_" class="st2" d="M96.5,137.4h7.2c0,0,2.2-0.2,3.3-1.4c1-1.1,1-3.2,1-3.2s-0.1-9.7,4.3-11.1
	c4.4-1.4,10.1,9.3,16.1,13.5c4.6,3.1,8,2.4,8,2.4l16.1-0.2c0,0,8.4-0.5,4.4-7.1c-0.3-0.5-2.3-4.9-12-13.8c-10.1-9.4-8.7-7.8,3.4-24
	c7.4-9.9,10.4-15.9,9.4-18.5c-0.9-2.5-6.3-1.8-6.3-1.8l-18.1,0.1c0,0-1.3-0.2-2.3,0.4c-1,0.6-1.6,1.9-1.6,1.9s-2.9,7.6-6.7,14.1
	c-8.1,13.7-11.3,14.4-12.6,13.6c-3.1-2-2.3-8-2.3-12.2c0-13.3,2-18.8-3.9-20.2c-2-0.5-3.4-0.8-8.5-0.8c-6.5-0.1-11.9,0-15,1.5
	c-2.1,1-3.7,3.3-2.7,3.4c1.2,0.2,3.9,0.7,5.3,2.7c1.9,2.5,1.8,8.2,1.8,8.2s1.1,15.6-2.5,17.6c-2.4,1.3-5.8-1.4-13-13.8
	c-3.7-6.4-6.5-13.4-6.5-13.4s-0.5-1.3-1.5-2c-1.2-0.9-2.8-1.1-2.8-1.1l-17.2,0.1c0,0-2.6,0.1-3.5,1.2c-0.8,1-0.1,3.1-0.1,3.1
	s13.5,31.5,28.7,47.4C80.6,138.4,96.5,137.4,96.5,137.4L96.5,137.4L96.5,137.4z"/>
</svg>
